<svg aria-hidden="true" style="position: absolute; width: 0; height: 0; overflow: hidden;" version="1.1" xmlns="http://www.w3.org/2000/svg" xmlns:xlink="http://www.w3.org/1999/xlink">
<defs>
<symbol id="icon-arrow-down" viewBox="0 0 32 32">
<path d="M25.997 12.658c0.001-0.309-0.108-0.608-0.306-0.846-0.112-0.134-0.249-0.245-0.404-0.326s-0.324-0.131-0.498-0.147c-0.174-0.016-0.35 0.002-0.517 0.054s-0.322 0.136-0.457 0.247l-7.131 5.923-7.144-5.712c-0.136-0.11-0.293-0.192-0.461-0.241s-0.344-0.066-0.519-0.047c-0.174 0.018-0.343 0.071-0.497 0.154s-0.29 0.196-0.399 0.332c-0.121 0.137-0.212 0.297-0.268 0.471s-0.075 0.357-0.056 0.538c0.019 0.181 0.075 0.357 0.165 0.515s0.212 0.297 0.359 0.406l7.982 6.386c0.238 0.195 0.537 0.301 0.845 0.301s0.607-0.106 0.845-0.301l7.982-6.611c0.161-0.133 0.288-0.301 0.372-0.492s0.12-0.398 0.107-0.606z"></path>
</symbol>
<symbol id="icon-arrow-left" viewBox="0 0 32 32">
<path d="M20.009 25.331c0.309 0.001 0.608-0.108 0.846-0.306 0.134-0.112 0.245-0.249 0.326-0.404s0.131-0.324 0.147-0.498c0.016-0.174-0.002-0.35-0.054-0.517s-0.135-0.322-0.247-0.457l-5.923-7.131 5.712-7.144c0.11-0.136 0.192-0.293 0.241-0.461s0.066-0.344 0.047-0.519c-0.018-0.174-0.071-0.343-0.154-0.497s-0.196-0.29-0.332-0.399c-0.137-0.121-0.297-0.212-0.471-0.268s-0.357-0.075-0.538-0.056-0.357 0.075-0.515 0.165c-0.159 0.090-0.297 0.212-0.407 0.359l-6.386 7.982c-0.194 0.238-0.301 0.537-0.301 0.845s0.106 0.607 0.301 0.845l6.611 7.982c0.133 0.161 0.301 0.288 0.492 0.372s0.398 0.12 0.606 0.107z"></path>
</symbol>
<symbol id="icon-arrow-right" viewBox="0 0 32 32">
<path d="M13.324 6.669c-0.309-0.001-0.608 0.108-0.846 0.306-0.134 0.112-0.245 0.249-0.326 0.404s-0.131 0.324-0.147 0.498 0.002 0.35 0.054 0.517c0.052 0.167 0.136 0.322 0.247 0.457l5.923 7.131-5.712 7.144c-0.11 0.136-0.192 0.293-0.241 0.461s-0.066 0.344-0.047 0.519c0.018 0.174 0.071 0.343 0.154 0.497s0.196 0.29 0.332 0.399c0.137 0.121 0.297 0.212 0.471 0.268s0.357 0.075 0.538 0.056c0.181-0.019 0.357-0.075 0.515-0.165s0.297-0.212 0.406-0.359l6.386-7.982c0.194-0.238 0.301-0.537 0.301-0.845s-0.106-0.607-0.301-0.845l-6.611-7.982c-0.133-0.161-0.301-0.288-0.492-0.372s-0.398-0.12-0.606-0.107z"></path>
</symbol>
<symbol id="icon-recommen1" viewBox="0 0 32 32">
<path  d="M28 14.443v11.557c-0 0.363-0.098 0.718-0.284 1.029s-0.452 0.566-0.771 0.739c-0.289 0.156-0.613 0.236-0.942 0.232h-6.007c-0.265 0-0.52-0.105-0.707-0.293s-0.293-0.442-0.293-0.707v-6.001c0-0.265-0.105-0.52-0.293-0.707s-0.442-0.293-0.707-0.293h-4c-0.265 0-0.52 0.105-0.707 0.293s-0.293 0.442-0.293 0.707v6.001c0 0.265-0.105 0.52-0.293 0.707s-0.442 0.293-0.707 0.293h-5.995c-0.284 0.001-0.564-0.059-0.822-0.176s-0.489-0.287-0.676-0.5c-0.329-0.38-0.507-0.868-0.501-1.37v-11.512c0-0.279 0.059-0.554 0.171-0.809s0.277-0.483 0.483-0.671l9.999-9.092c0.367-0.336 0.847-0.523 1.345-0.523s0.978 0.187 1.345 0.523l10.001 9.092c0.206 0.188 0.371 0.416 0.483 0.671s0.171 0.53 0.171 0.809z"></path>
</symbol>
<symbol id="icon-recommen2" viewBox="0 0 32 32">
<path  d="M9.333 28h-4c-0.733 0-1.333-0.6-1.333-1.333v-15.080c0-0.56 0.333-1.053 0.853-1.253l14.667-5.64c0.203-0.078 0.421-0.106 0.637-0.080s0.422 0.104 0.601 0.227 0.325 0.289 0.425 0.482c0.1 0.193 0.152 0.407 0.15 0.625v7.387h-10.667c-0.733 0-1.333 0.6-1.333 1.333v13.333zM22.667 16h-9.333c-0.733 0-1.333 0.6-1.333 1.333v9.333c0 0.733 0.6 1.333 1.333 1.333h5.333v-5.333c0-0.733 0.6-1.333 1.333-1.333s1.333 0.6 1.333 1.333v5.333h5.333c0.733 0 1.333-0.6 1.333-1.333v-10.667c0-1.467-1.2-2.667-2.667-2.667s-2.667 1.2-2.667 2.667z"></path>
</symbol>
<symbol id="icon-recommen3" viewBox="0 0 32 32">
<path  d="M22.667 14.667v-8c0-1.467-1.2-2.667-2.667-2.667h-8c-1.467 0-2.667 1.2-2.667 2.667v2.667h-2.667c-1.467 0-2.667 1.2-2.667 2.667v13.333c0 1.467 1.2 2.667 2.667 2.667h8v-5.333h2.667v5.333h8c1.467 0 2.667-1.2 2.667-2.667v-8c0-1.467-1.2-2.667-2.667-2.667h-2.667zM9.333 25.333h-2.667v-2.667h2.667v2.667zM9.333 20h-2.667v-2.667h2.667v2.667zM9.333 14.667h-2.667v-2.667h2.667v2.667zM14.667 20h-2.667v-2.667h2.667v2.667zM14.667 14.667h-2.667v-2.667h2.667v2.667zM14.667 9.333h-2.667v-2.667h2.667v2.667zM20 20h-2.667v-2.667h2.667v2.667zM20 14.667h-2.667v-2.667h2.667v2.667zM20 9.333h-2.667v-2.667h2.667v2.667zM25.333 25.333h-2.667v-2.667h2.667v2.667zM25.333 20h-2.667v-2.667h2.667v2.667z"></path>

</symbol>
<symbol id="icon-search" viewBox="0 0 32 32">
<path fill="#f59e0b" style="fill: var(--color2, #f59e0b)" d="M16 1.333c3.183 0 6.235 1.325 8.485 3.682s3.515 5.555 3.515 8.889c0 6.007-3.87 11.537-11.464 16.599-0.16 0.107-0.346 0.163-0.536 0.163s-0.376-0.057-0.536-0.163c-7.594-5.062-11.464-10.591-11.464-16.599 0-3.334 1.264-6.532 3.515-8.889s5.303-3.682 8.485-3.682zM16 9.714c-1.061 0-2.078 0.441-2.828 1.227s-1.172 1.852-1.172 2.963c0 1.111 0.421 2.177 1.172 2.963s1.768 1.227 2.828 1.227c1.061 0 2.078-0.441 2.828-1.227s1.172-1.852 1.172-2.963c0-1.111-0.421-2.177-1.172-2.963s-1.768-1.227-2.828-1.227z"></path>
<symbol id="icon-recommen-fire" viewBox="0 0 32 32">
<path fill="#ef4444" style="fill: var(--color1, #ef4444)" d="M26.066 14.662c-0.607-1.365-1.489-2.591-2.591-3.6l-0.909-0.834c-0.031-0.028-0.068-0.047-0.108-0.057s-0.082-0.010-0.122 0.001c-0.040 0.010-0.077 0.030-0.108 0.058s-0.054 0.063-0.068 0.102l-0.406 1.166c-0.253 0.731-0.719 1.478-1.378 2.213-0.044 0.047-0.094 0.059-0.128 0.063s-0.087-0.003-0.134-0.047c-0.044-0.037-0.066-0.094-0.062-0.15 0.116-1.881-0.447-4.003-1.678-6.313-1.019-1.919-2.434-3.416-4.203-4.459l-1.291-0.759c-0.169-0.1-0.384 0.031-0.375 0.228l0.069 1.5c0.047 1.025-0.072 1.931-0.353 2.684-0.344 0.922-0.838 1.778-1.469 2.547-0.439 0.534-0.937 1.017-1.484 1.441-1.318 1.013-2.389 2.311-3.134 3.797-0.743 1.499-1.13 3.149-1.131 4.822 0 1.475 0.291 2.903 0.866 4.25 0.555 1.297 1.356 2.474 2.359 3.466 1.012 1 2.188 1.787 3.497 2.334 1.356 0.569 2.794 0.856 4.278 0.856s2.922-0.287 4.278-0.853c1.306-0.544 2.494-1.336 3.497-2.334 1.013-1 1.806-2.169 2.359-3.466 0.574-1.343 0.869-2.789 0.866-4.25 0-1.525-0.312-3.006-0.934-4.403z"></path>
</symbol>
<symbol id="icon-recommen-house" viewBox="0 0 32 32">
<path fill="#1d4ed8" style="fill: var(--color2, #1d4ed8)" d="M28 14.443v11.557c-0 0.362-0.098 0.718-0.284 1.029s-0.452 0.566-0.771 0.738c-0.289 0.157-0.613 0.236-0.942 0.232h-6.007c-0.265 0-0.52-0.105-0.707-0.293s-0.293-0.442-0.293-0.707v-6.001c0-0.265-0.105-0.52-0.293-0.707s-0.442-0.293-0.707-0.293h-4c-0.265 0-0.52 0.105-0.707 0.293s-0.293 0.442-0.293 0.707v6.001c0 0.265-0.105 0.52-0.293 0.707s-0.442 0.293-0.707 0.293h-5.995c-0.284 0.001-0.564-0.059-0.822-0.176s-0.489-0.287-0.676-0.5c-0.329-0.38-0.507-0.868-0.501-1.37v-11.512c0-0.279 0.059-0.554 0.171-0.809s0.277-0.483 0.483-0.671l9.999-9.092c0.367-0.336 0.847-0.523 1.345-0.523s0.978 0.187 1.346 0.523l10.001 9.092c0.206 0.188 0.37 0.416 0.483 0.671s0.171 0.53 0.171 0.809z"></path>
</symbol>
<symbol id="icon-recommen-wallet" viewBox="0 0 32 32">
<path fill="#047857" style="fill: var(--color3, #047857)" d="M25.6 9.6h-20v-0.8l17.6-1.408v1.408h2.4v-2.4c0-1.76-1.426-2.995-3.166-2.747l-16.066 2.294c-1.742 0.25-3.168 1.893-3.168 3.653v16c0 0.849 0.337 1.663 0.937 2.263s1.414 0.937 2.263 0.937h19.2c0.849 0 1.663-0.337 2.263-0.937s0.937-1.414 0.937-2.263v-12.8c0-0.849-0.337-1.663-0.937-2.263s-1.414-0.937-2.263-0.937zM23.2 20.81c-0.315-0-0.627-0.062-0.919-0.183s-0.556-0.298-0.779-0.521-0.4-0.488-0.52-0.779c-0.121-0.291-0.183-0.604-0.182-0.919s0.062-0.627 0.183-0.919 0.298-0.556 0.521-0.779c0.223-0.223 0.488-0.4 0.779-0.52s0.603-0.183 0.919-0.182c0.637 0 1.247 0.253 1.697 0.704s0.703 1.061 0.703 1.698-0.253 1.247-0.704 1.697c-0.45 0.45-1.061 0.703-1.698 0.703z"></path>
</symbol>
</symbol>
</defs>
</svg>
